HIERARCHY
ROOT Hips
{
	OFFSET 0.000000 0.000000 0.000000
	CHANNELS 6 Xposition Yposition Zposition Xrotation Yrotation Zrotation
	JOINT LeftUpLeg_virtual
	{
		OFFSET 0.000000 0.000000 0.000000
		CHANNELS 3 Xrotation Yrotation Zrotation
		JOINT LeftUpLeg
		{
			OFFSET 10.205400 -3.823500 0.155100
			CHANNELS 3 Xrotation Yrotation Zrotation
			JOINT LeftLeg
			{
				OFFSET 0.708757 -12.982077 0.567790
				CHANNELS 3 Xrotation Yrotation Zrotation
				JOINT LeftFoot
				{
					OFFSET -0.708756 -10.717838 -2.184338
					CHANNELS 3 Xrotation Yrotation Zrotation
					JOINT LeftToeBase
					{
						OFFSET 0.108149 -7.191104 7.560241
						CHANNELS 3 Xrotation Yrotation Zrotation
						JOINT LeftToe_End
						{
							OFFSET 0.070230 0.081724 4.490308
							CHANNELS 3 Xrotation Yrotation Zrotation
							End Site
							{
								OFFSET 0 0 0
							}
						}
					}
				}
			}
		}
	}
	JOINT RightUpLeg_virtual
	{
		OFFSET 0.000000 0.000000 0.000000
		CHANNELS 3 Xrotation Yrotation Zrotation
		JOINT RightUpLeg
		{
			OFFSET -10.205400 -3.823500 0.005500
			CHANNELS 3 Xrotation Yrotation Zrotation
			JOINT RightLeg
			{
				OFFSET -0.708756 -12.982134 0.610632
				CHANNELS 3 Xrotation Yrotation Zrotation
				JOINT RightFoot
				{
					OFFSET 0.708754 -10.717769 -1.945823
					CHANNELS 3 Xrotation Yrotation Zrotation
					JOINT RightToeBase
					{
						OFFSET -0.108140 -7.191069 7.372968
						CHANNELS 3 Xrotation Yrotation Zrotation
						JOINT RightToe_End
						{
							OFFSET -0.070227 0.081735 4.479403
							CHANNELS 3 Xrotation Yrotation Zrotation
							End Site
							{
								OFFSET 0 0 0
							}
						}
					}
				}
			}
		}
	}
	JOINT Spine_virtual
	{
		OFFSET 0.000000 0.000000 0.000000
		CHANNELS 3 Xrotation Yrotation Zrotation
		JOINT Spine
		{
			OFFSET 0.000000 6.876099 0.125700
			CHANNELS 3 Xrotation Yrotation Zrotation
			JOINT Spine1
			{
				OFFSET 0.000000 5.730043 0.104720
				CHANNELS 3 Xrotation Yrotation Zrotation
				JOINT Spine1_split
				{
					OFFSET 0.000000 5.730043 0.104720
					CHANNELS 3 Xrotation Yrotation Zrotation
					JOINT Spine2
					{
						OFFSET 0.000000 5.730043 0.104720
						CHANNELS 3 Xrotation Yrotation Zrotation
						JOINT Neck_virtual
						{
							OFFSET 0.000000 0.000000 0.000000
							CHANNELS 3 Xrotation Yrotation Zrotation
							JOINT Neck
							{
								OFFSET 0.000000 10.314075 0.188496
								CHANNELS 3 Xrotation Yrotation Zrotation
								JOINT Head
								{
									OFFSET 0.000000 7.643700 -2.377400
									CHANNELS 3 Xrotation Yrotation Zrotation
									JOINT HeadTop_End
									{
										OFFSET 0.000000 43.788605 -13.619600
										CHANNELS 3 Xrotation Yrotation Zrotation
										End Site
										{
											OFFSET 0 0 0
										}
									}
								}
							}
						}
						JOINT LeftShoulder_virtual
						{
							OFFSET 0.000000 0.000000 0.000000
							CHANNELS 3 Xrotation Yrotation Zrotation
							JOINT LeftShoulder
							{
								OFFSET 2.196100 4.412489 0.087492
								CHANNELS 3 Xrotation Yrotation Zrotation
								JOINT LeftShoulder_split
								{
									OFFSET 2.196100 4.412489 0.087492
									CHANNELS 3 Xrotation Yrotation Zrotation
									JOINT LeftArm
									{
										OFFSET 8.771219 -2.981674 -0.026999
										CHANNELS 3 Xrotation Yrotation Zrotation
										JOINT LeftForeArm
										{
											OFFSET 8.512804 0.000000 -0.000000
											CHANNELS 3 Xrotation Yrotation Zrotation
											JOINT LeftHand
											{
												OFFSET 18.484802 0.000000 -0.000000
												CHANNELS 3 Xrotation Yrotation Zrotation
												End Site
												{
													OFFSET 0 0 0
												}
											}
										}
									}
								}
							}
						}
						JOINT RightShoulder_virtual
						{
							OFFSET 0.000000 0.000000 0.000000
							CHANNELS 3 Xrotation Yrotation Zrotation
							JOINT RightShoulder
							{
								OFFSET -2.196100 4.412496 0.070690
								CHANNELS 3 Xrotation Yrotation Zrotation
								JOINT RightShoulder_split
								{
									OFFSET -2.196100 4.412496 0.070690
									CHANNELS 3 Xrotation Yrotation Zrotation
									JOINT RightArm
									{
										OFFSET -8.771282 -2.981682 -0.094208
										CHANNELS 3 Xrotation Yrotation Zrotation
										JOINT RightForeArm
										{
											OFFSET -8.494598 0.000000 0.000000
											CHANNELS 3 Xrotation Yrotation Zrotation
											JOINT RightHand
											{
												OFFSET -18.483803 0.000000 0.000001
												CHANNELS 3 Xrotation Yrotation Zrotation
												End Site
												{
													OFFSET 0 0 0
												}
											}
										}
									}
								}
							}
						}
					}
				}
			}
		}
	}
}
MOTION
Frames: 7
Frame Time: 0.03333333
1.290767 23.788967 -1.454380 0.000000 0.000000 0.000000 25.135757 -9.724568 -1.933418 -104.696439 -8.344741 -5.903589 57.524830 23.659430 -9.923750 42.228273 18.510084 -1.606011 -5.547489 2.660137 2.017206 0.000000 0.000000 0.000000 25.336214 -7.064084 -3.690663 31.604744 -6.454697 6.366064 40.053326 0.066215 5.020394 -23.771917 -20.520887 34.154965 -43.766995 1.707670 4.150396 0.000000 0.000000 0.000000 18.962593 -9.001330 -5.101785 10.699830 13.646216 -10.444481 1.351598 4.321989 -0.865043 0.448345 1.383353 0.497746 0.000000 0.000000 0.000000 1.449439 4.716109 -0.917967 -0.804137 -3.461751 3.348734 -4.212322 -7.430361 11.370719 0.000000 0.000000 0.000000 2.648991 4.531635 -0.875009 1.535626 2.454929 -16.151744 -1.281811 -1.105163 -1.727928 -1.933332 24.062731 -36.888619 2.508916 -21.845508 -0.830421 0.000000 0.000000 0.000000 2.493566 4.444193 -0.822189 3.858810 12.711371 -5.465767 1.613972 0.826688 2.397253 -47.674054 66.264474 15.767032 -172.202347 76.911004 170.195050 0.000000 0.000000 0.000000 
0.790174 23.893490 -0.475260 0.000000 0.000000 0.000000 25.917993 -9.640290 -2.182326 -104.562034 -8.504870 -5.014140 58.762447 21.807254 -9.323623 42.393816 18.210538 -2.439542 -6.051452 2.558216 2.269119 0.000000 0.000000 0.000000 26.422582 -6.280952 -4.157031 30.628040 -7.639952 5.597555 40.130677 0.759957 5.253272 -22.187369 -19.559526 32.876467 -42.844154 1.138143 5.012304 0.000000 0.000000 0.000000 20.403805 -7.997117 -5.148787 11.144173 13.098007 -10.853159 1.676599 4.107424 -0.807372 0.616136 1.067930 0.417060 0.000000 0.000000 0.000000 1.601586 4.573064 -0.914843 -0.826020 -2.952191 3.178651 -4.266923 -7.860865 11.338762 0.000000 0.000000 0.000000 2.835160 4.299953 -0.851928 1.498497 1.617851 -16.337041 -1.822051 -2.140763 -1.906935 -4.422372 22.725853 -36.364245 2.626237 -23.649306 -0.773312 0.000000 0.000000 0.000000 2.565171 4.228681 -0.704196 3.867211 13.002419 -5.296651 1.636959 0.434653 2.235744 -44.931928 65.233784 12.763633 -170.569276 77.450712 168.796036 0.000000 0.000000 0.000000 
-0.191472 24.105930 0.881392 0.000000 0.000000 0.000000 27.405559 -9.220731 -2.403304 -105.348647 -8.611960 -3.175746 61.855286 18.948937 -8.788451 40.290091 18.675450 -2.124666 -7.000277 2.451738 2.059928 0.000000 0.000000 0.000000 28.361980 -4.823921 -4.630725 26.764368 -9.355255 3.691345 41.685447 1.538654 5.435413 -19.194117 -18.614823 30.503130 -43.264450 -0.091967 7.090642 0.000000 0.000000 0.000000 22.959437 -7.086270 -5.149264 12.166611 11.933539 -11.323862 1.844094 3.767380 -0.909144 1.058071 1.040781 0.071515 0.000000 0.000000 0.000000 1.679671 4.318963 -1.082182 -1.216727 -2.458365 3.005311 -4.679824 -8.715976 11.500967 0.000000 0.000000 0.000000 2.803558 3.960679 -0.964841 1.384721 0.428835 -17.099665 -2.472336 -2.352922 -2.502885 -7.742525 20.932930 -34.706442 2.970944 -27.528630 -0.432525 0.000000 0.000000 0.000000 2.428192 3.863295 -0.746288 3.825989 13.520590 -4.813610 1.307713 0.526586 2.054563 -39.090358 62.516585 7.100417 -169.745541 76.650924 168.048649 0.000000 0.000000 0.000000 
-1.428339 24.354042 2.376137 0.000000 0.000000 0.000000 29.415565 -8.443482 -2.577409 -106.849765 -8.419301 -0.666415 65.656771 15.565463 -8.292668 35.726828 19.604496 -0.664708 -8.448865 2.309057 1.643099 0.000000 0.000000 0.000000 30.795031 -3.117646 -4.973125 19.959893 -11.454813 0.646230 44.361126 2.154229 5.530703 -15.867680 -18.275302 27.004936 -44.469934 -1.733416 9.523323 0.000000 0.000000 0.000000 26.247572 -6.394668 -5.073069 13.513920 10.374008 -11.788455 1.817861 3.355453 -1.115002 1.448272 1.113945 -0.014427 0.000000 0.000000 0.000000 1.682857 3.993984 -1.348046 -1.937314 -2.031012 2.782383 -5.415766 -9.860591 11.762650 0.000000 0.000000 0.000000 2.634502 3.575407 -1.180216 1.207885 -0.853388 -18.408444 -3.165930 -1.736819 -3.274928 -10.738761 18.968784 -32.539892 3.447111 -32.605680 0.131186 0.000000 0.000000 0.000000 2.141357 3.428412 -0.927906 3.790215 14.124930 -4.173699 0.856284 1.090488 1.877437 -32.752823 58.601719 1.511660 -170.139712 74.467722 168.403027 0.000000 0.000000 0.000000 
-2.713710 24.630985 3.903349 0.000000 0.000000 0.000000 31.712493 -7.330868 -2.739832 -108.649035 -7.901076 2.126560 69.004117 11.808611 -7.724619 29.362823 20.473523 1.176925 -10.186022 2.052818 1.435051 0.000000 0.000000 0.000000 33.283006 -1.715762 -5.067920 10.427107 -13.883848 -3.630555 47.716296 2.483555 5.622190 -12.719609 -18.561910 23.239722 -45.396432 -3.183193 11.259708 0.000000 0.000000 0.000000 29.715360 -5.902252 -4.927050 14.978759 8.642849 -12.216788 1.644320 2.974758 -1.361044 1.748120 1.199885 0.097455 0.000000 0.000000 0.000000 1.605399 3.652289 -1.634190 -2.771600 -1.751637 2.562117 -6.338510 -11.005524 11.943783 0.000000 0.000000 0.000000 2.404107 3.210115 -1.414901 0.977208 -2.084322 -20.096409 -3.696033 -0.948635 -3.883805 -12.709482 16.912682 -30.282385 3.853176 -38.253793 0.785205 0.000000 0.000000 0.000000 1.800175 3.017740 -1.177424 3.761804 14.715021 -3.549195 0.584748 1.826609 1.731263 -27.236503 54.288953 -2.748221 -171.350322 71.272013 169.488672 0.000000 0.000000 0.000000 
-3.916431 24.920624 5.487554 0.000000 0.000000 0.000000 34.289462 -5.995961 -2.961001 -110.253023 -7.061543 4.994881 71.494138 7.789673 -7.069447 22.065573 21.055590 2.587188 -11.560137 1.632493 1.775446 0.000000 0.000000 0.000000 35.559396 -1.053824 -4.920842 -0.736477 -16.568562 -9.010187 51.325426 2.749854 5.865212 -10.224335 -19.186295 19.911166 -44.835288 -3.850104 11.720703 0.000000 0.000000 0.000000 33.085091 -5.470097 -4.876871 16.324535 6.971918 -12.597672 1.436591 2.697805 -1.593089 1.527768 1.370824 0.177272 0.000000 0.000000 0.000000 1.525107 3.324273 -1.893022 -3.536201 -1.610956 2.449538 -7.252064 -11.971374 11.934407 0.000000 0.000000 0.000000 2.173765 2.915038 -1.624434 0.698681 -3.253119 -21.783585 -3.828470 -0.085606 -4.127186 -13.435779 15.022161 -28.369928 3.937172 -43.604498 1.320636 0.000000 0.000000 0.000000 1.510668 2.683072 -1.429529 3.770013 15.320831 -2.976692 0.278488 2.434414 1.801557 -22.961189 50.328829 -5.429080 -172.779389 67.914852 170.770630 0.000000 0.000000 0.000000 
-5.063803 25.236847 7.150235 0.000000 0.000000 0.000000 36.864850 -4.570934 -3.368777 -111.093997 -6.195528 7.979712 73.144325 3.659088 -6.286789 14.247705 21.570642 3.291868 -12.198673 1.064234 2.547136 0.000000 0.000000 0.000000 37.661981 -0.984077 -4.656635 -12.354031 -19.270902 -15.185385 54.215743 3.125221 6.276504 -8.873990 -19.799248 17.278382 -42.347583 -3.385054 10.756488 0.000000 0.000000 0.000000 36.299928 -4.724879 -5.127126 17.469836 5.464737 -12.952994 1.292967 2.487238 -1.824960 1.182420 1.373556 0.332791 0.000000 0.000000 0.000000 1.539136 3.031113 -2.094282 -4.198176 -1.555821 2.457522 -7.943640 -12.761766 11.754676 0.000000 0.000000 0.000000 1.996888 2.694390 -1.803909 0.381494 -4.490731 -23.199455 -3.642848 0.335537 -3.832264 -13.758418 13.339943 -26.868376 3.615384 -47.783023 1.612935 0.000000 0.000000 0.000000 1.308686 2.427587 -1.654521 3.778334 15.865116 -2.369107 -0.132432 2.897158 2.036210 -19.861943 47.111633 -6.833117 -174.125714 65.084012 171.998971 0.000000 0.000000 0.000000 
